#tb 0: 1/25
#media_type 0: video
#codec_id 0: rawvideo
#dimensions 0: 176x144
#sar 0: 0/1
0,          0,          0,        1,    38016, 0xb3883478
0,          1,          1,        1,    38016, 0x23a30e47
0,          2,          2,        1,    38016, 0xa0b7df0f
0,          3,          3,        1,    38016, 0x5cd9beed
0,          4,          4,        1,    38016, 0x13b09699
0,          5,          5,        1,    38016, 0x66697d65
0,          6,          6,        1,    38016, 0xf0486d0d
0,          7,          7,        1,    38016, 0xaf94644e
0,          8,          8,        1,    38016, 0x43c45981
0,          9,          9,        1,    38016, 0x8f655e70
0,         10,         10,        1,    38016, 0x3d747a52
0,         11,         11,        1,    38016, 0x906e95f9
0,         12,         12,        1,    38016, 0xdd3ea1a0
0,         13,         13,        1,    38016, 0x216eb0ee
0,         14,         14,        1,    38016, 0x06cbabfe
0,         15,         15,        1,    38016, 0xd41c9cf7
0,         16,         16,        1,    38016, 0x6d2fa58e
0,         17,         17,        1,    38016, 0x0adca6fc
0,         18,         18,        1,    38016, 0x51c49ad9
0,         19,         19,        1,    38016, 0x83e57a42
0,         20,         20,        1,    38016, 0xe47b5dad
0,         21,         21,        1,    38016, 0x5e123c13
0,         22,         22,        1,    38016, 0xad682f93
0,         23,         23,        1,    38016, 0x77b02d2c
0,         24,         24,        1,    38016, 0x976d316e
0,         25,         25,        1,    38016, 0x3d923c72
0,         26,         26,        1,    38016, 0xf073398d
0,         27,         27,        1,    38016, 0x6dc547b4
0,         28,         28,        1,    38016, 0xfa9859b3
0,         29,         29,        1,    38016, 0xfc3f77b9
0,         30,         30,        1,    38016, 0xed9563d3
0,         31,         31,        1,    38016, 0xc040929e
0,         32,         32,        1,    38016, 0x5562af3c
0,         33,         33,        1,    38016, 0xa56abc78
0,         34,         34,        1,    38016, 0x702ec702
0,         35,         35,        1,    38016, 0x8ee7c909
0,         36,         36,        1,    38016, 0x9065c44f
0,         37,         37,        1,    38016, 0x11e3c40b
0,         38,         38,        1,    38016, 0x20fbc27a
0,         39,         39,        1,    38016, 0xaeecc582
0,         40,         40,        1,    38016, 0x3b32ca4f
0,         41,         41,        1,    38016, 0x5464ce6c
0,         42,         42,        1,    38016, 0x41d4cd66
0,         43,         43,        1,    38016, 0x8a69c6ef
0,         44,         44,        1,    38016, 0x2c63c59e
0,         45,         45,        1,    38016, 0xe3728780
0,         46,         46,        1,    38016, 0xc60c9ca3
0,         47,         47,        1,    38016, 0x8299a65a
0,         48,         48,        1,    38016, 0x67d4b3d5
0,         49,         49,        1,    38016, 0xd650bd19
0,         50,         50,        1,    38016, 0xe8c9b285
0,         51,         51,        1,    38016, 0x9a3dba0c
0,         52,         52,        1,    38016, 0xb3f4bfc3
0,         53,         53,        1,    38016, 0xe3edbe71
0,         54,         54,        1,    38016, 0xea7fc14f
0,         55,         55,        1,    38016, 0x4560cb94
0,         56,         56,        1,    38016, 0x3b48ce1b
0,         57,         57,        1,    38016, 0xc668d24c
0,         58,         58,        1,    38016, 0x8bdcd514
0,         59,         59,        1,    38016, 0xd0f8d380
0,         60,         60,        1,    38016, 0x98a59a5a
0,         61,         61,        1,    38016, 0x086d9c52
0,         62,         62,        1,    38016, 0x50417af3
0,         63,         63,        1,    38016, 0xe8ae428b
0,         64,         64,        1,    38016, 0xb5663f68
0,         65,         65,        1,    38016, 0x452e6045
0,         66,         66,        1,    38016, 0x0412991e
0,         67,         67,        1,    38016, 0xa791d0c8
0,         68,         68,        1,    38016, 0x952c13e8
0,         69,         69,        1,    38016, 0x9356462c
0,         70,         70,        1,    38016, 0x34026bf3
0,         71,         71,        1,    38016, 0x3a109e70
0,         72,         72,        1,    38016, 0xc28dccb1
0,         73,         73,        1,    38016, 0x445f08e7
0,         74,         74,        1,    38016, 0x1e0c4781
0,         75,         75,        1,    38016, 0x4c0b3afa
0,         76,         76,        1,    38016, 0x90147b21
0,         77,         77,        1,    38016, 0xe6fb9ee6
0,         78,         78,        1,    38016, 0x3bbac15a
0,         79,         79,        1,    38016, 0x113ecc97
0,         80,         80,        1,    38016, 0xa271e248
0,         81,         81,        1,    38016, 0xbc97f36a
0,         82,         82,        1,    38016, 0x2a5af366
0,         83,         83,        1,    38016, 0xc171ec49
0,         84,         84,        1,    38016, 0x2393e85e
0,         85,         85,        1,    38016, 0xbf59eeb0
0,         86,         86,        1,    38016, 0xcec2f989
0,         87,         87,        1,    38016, 0x3cb8fcb3
0,         88,         88,        1,    38016, 0x28150278
0,         89,         89,        1,    38016, 0x27f70026
0,         90,         90,        1,    38016, 0x8fa69f07
0,         91,         91,        1,    38016, 0x198b9a79
0,         92,         92,        1,    38016, 0x40928d52
0,         93,         93,        1,    38016, 0x1504834e
0,         94,         94,        1,    38016, 0xb53677ab
0,         95,         95,        1,    38016, 0x2e2c783d
0,         96,         96,        1,    38016, 0x5fd38e3a
0,         97,         97,        1,    38016, 0x697e9cd3
0,         98,         98,        1,    38016, 0x0b18ad4b
0,         99,         99,        1,    38016, 0x6ad7b78f
0,        100,        100,        1,    38016, 0x6af3c654
0,        101,        101,        1,    38016, 0x5aabb804
0,        102,        102,        1,    38016, 0x9b5aa6e5
0,        103,        103,        1,    38016, 0x2993a311
0,        104,        104,        1,    38016, 0x1382b8e5
0,        105,        105,        1,    38016, 0xf294a253
0,        106,        106,        1,    38016, 0xafa5c2a5
0,        107,        107,        1,    38016, 0x621ce2b5
0,        108,        108,        1,    38016, 0x676c0440
0,        109,        109,        1,    38016, 0xa7c31e07
0,        110,        110,        1,    38016, 0x29612ba2
0,        111,        111,        1,    38016, 0xb38c3920
0,        112,        112,        1,    38016, 0xfcce3ee5
0,        113,        113,        1,    38016, 0x3ee81fac
0,        114,        114,        1,    38016, 0x635cfdb0
0,        115,        115,        1,    38016, 0x222afa63
0,        116,        116,        1,    38016, 0x230c09cb
0,        117,        117,        1,    38016, 0x2b491802
0,        118,        118,        1,    38016, 0x9cac2164
0,        119,        119,        1,    38016, 0xa0532de8
0,        120,        120,        1,    38016, 0x32e93592
0,        121,        121,        1,    38016, 0x724033a9
0,        122,        122,        1,    38016, 0x74411884
0,        123,        123,        1,    38016, 0xae14efcf
0,        124,        124,        1,    38016, 0x0188cdc7
0,        125,        125,        1,    38016, 0x5708b5c1
0,        126,        126,        1,    38016, 0x54aba6da
0,        127,        127,        1,    38016, 0x7364b397
0,        128,        128,        1,    38016, 0xf676c547
0,        129,        129,        1,    38016, 0x6926db3a
0,        130,        130,        1,    38016, 0xccdbe5be
0,        131,        131,        1,    38016, 0x8fc8e490
0,        132,        132,        1,    38016, 0x5d7fdd35
0,        133,        133,        1,    38016, 0x0e27e010
0,        134,        134,        1,    38016, 0x8120dd43
0,        135,        135,        1,    38016, 0x1612a173
0,        136,        136,        1,    38016, 0x3f1cb4b7
0,        137,        137,        1,    38016, 0xd1c7b0a6
0,        138,        138,        1,    38016, 0x472baad5
0,        139,        139,        1,    38016, 0xfe37a1f3
0,        140,        140,        1,    38016, 0x42a391ba
0,        141,        141,        1,    38016, 0xdb618cac
0,        142,        142,        1,    38016, 0x7af879bf
0,        143,        143,        1,    38016, 0xe6f27644
0,        144,        144,        1,    38016, 0x550a7f0c
0,        145,        145,        1,    38016, 0x7d297eaa
0,        146,        146,        1,    38016, 0xaeb57623
0,        147,        147,        1,    38016, 0x6d5e4995
0,        148,        148,        1,    38016, 0x57df1be0
0,        149,        149,        1,    38016, 0x7617f825
0,        150,        150,        1,    38016, 0xf731aef2
0,        151,        151,        1,    38016, 0x489aae6c
0,        152,        152,        1,    38016, 0x2d80b7a4
0,        153,        153,        1,    38016, 0xe4b6ac4e
0,        154,        154,        1,    38016, 0xd243a374
0,        155,        155,        1,    38016, 0x5cf9b85b
0,        156,        156,        1,    38016, 0xe824d798
0,        157,        157,        1,    38016, 0x8a46f630
0,        158,        158,        1,    38016, 0x4a03337f
0,        159,        159,        1,    38016, 0xefe25cf7
0,        160,        160,        1,    38016, 0xed876efa
0,        161,        161,        1,    38016, 0xdf1b6b65
0,        162,        162,        1,    38016, 0xd3225d8c
0,        163,        163,        1,    38016, 0x0cf04d8d
0,        164,        164,        1,    38016, 0x0fdc3bb3
0,        165,        165,        1,    38016, 0xc31bf5da
0,        166,        166,        1,    38016, 0x09e0ec79
0,        167,        167,        1,    38016, 0x6521c8fb
0,        168,        168,        1,    38016, 0x6f67a94c
0,        169,        169,        1,    38016, 0xa0a49f38
0,        170,        170,        1,    38016, 0x759fb6f2
0,        171,        171,        1,    38016, 0xea41ddf8
0,        172,        172,        1,    38016, 0xe559f0a6
0,        173,        173,        1,    38016, 0x1dcbec38
0,        174,        174,        1,    38016, 0xfb62dc6a
0,        175,        175,        1,    38016, 0x3d0fac24
0,        176,        176,        1,    38016, 0x87c373a1
0,        177,        177,        1,    38016, 0x97a84562
0,        178,        178,        1,    38016, 0xe4361c2e
0,        179,        179,        1,    38016, 0x21170c47
0,        180,        180,        1,    38016, 0x0769ec52
0,        181,        181,        1,    38016, 0xac1ad44d
0,        182,        182,        1,    38016, 0xdf87cb3e
0,        183,        183,        1,    38016, 0x95c0d66f
0,        184,        184,        1,    38016, 0xba33da6f
0,        185,        185,        1,    38016, 0x71b2e866
0,        186,        186,        1,    38016, 0x64540dd1
0,        187,        187,        1,    38016, 0x79cb2d92
0,        188,        188,        1,    38016, 0xfe8e394b
0,        189,        189,        1,    38016, 0x648f443f
0,        190,        190,        1,    38016, 0x491eee56
0,        191,        191,        1,    38016, 0x6195b91b
0,        192,        192,        1,    38016, 0x3935c2b0
0,        193,        193,        1,    38016, 0x2408e296
0,        194,        194,        1,    38016, 0xe17106b5
0,        195,        195,        1,    38016, 0xd8d01ad1
0,        196,        196,        1,    38016, 0x85d15104
0,        197,        197,        1,    38016, 0xacc16731
0,        198,        198,        1,    38016, 0xb6a990b7
0,        199,        199,        1,    38016, 0x8153a9cd
0,        200,        200,        1,    38016, 0xef5ab92a
0,        201,        201,        1,    38016, 0x392acfab
0,        202,        202,        1,    38016, 0x7031d48e
0,        203,        203,        1,    38016, 0x5d3ed39f
0,        204,        204,        1,    38016, 0x004fd516
0,        205,        205,        1,    38016, 0x8de7dc94
0,        206,        206,        1,    38016, 0x7e21db4a
0,        207,        207,        1,    38016, 0x518dd829
0,        208,        208,        1,    38016, 0xf780cf45
0,        209,        209,        1,    38016, 0x0a49bd6f
0,        210,        210,        1,    38016, 0xadb65d17
0,        211,        211,        1,    38016, 0xbe79629d
0,        212,        212,        1,    38016, 0x2daa65c8
0,        213,        213,        1,    38016, 0x0b4a6737
0,        214,        214,        1,    38016, 0x8e705885
0,        215,        215,        1,    38016, 0x6d2a4af2
0,        216,        216,        1,    38016, 0x89fe4b54
0,        217,        217,        1,    38016, 0x90cb4dde
0,        218,        218,        1,    38016, 0x2d9e4f4e
0,        219,        219,        1,    38016, 0x5fcd4a7b
0,        220,        220,        1,    38016, 0xdb4143e7
0,        221,        221,        1,    38016, 0xd9343662
0,        222,        222,        1,    38016, 0xdf4a2af2
0,        223,        223,        1,    38016, 0xbe8f1fd2
0,        224,        224,        1,    38016, 0x4658200f
0,        225,        225,        1,    38016, 0x92b51315
0,        226,        226,        1,    38016, 0x441f1576
0,        227,        227,        1,    38016, 0x970b29b4
0,        228,        228,        1,    38016, 0x93ac40f2
0,        229,        229,        1,    38016, 0xa0ac6b06
0,        230,        230,        1,    38016, 0xdd5b8f01
0,        231,        231,        1,    38016, 0xa921b3d5
0,        232,        232,        1,    38016, 0xdd6fdf01
0,        233,        233,        1,    38016, 0x1c6c0306
0,        234,        234,        1,    38016, 0xcea2235d
0,        235,        235,        1,    38016, 0x43853758
0,        236,        236,        1,    38016, 0xa0234e29
0,        237,        237,        1,    38016, 0x94c85022
0,        238,        238,        1,    38016, 0xaf4e33ab
0,        239,        239,        1,    38016, 0x07f90e0c
0,        240,        240,        1,    38016, 0x99cee4bd
0,        241,        241,        1,    38016, 0xb7cdcf79
0,        242,        242,        1,    38016, 0x5923c14c
0,        243,        243,        1,    38016, 0x771f15d4
0,        244,        244,        1,    38016, 0x20f08043
0,        245,        245,        1,    38016, 0xb7bfeab2
0,        246,        246,        1,    38016, 0x53440996
0,        247,        247,        1,    38016, 0x6452d384
0,        248,        248,        1,    38016, 0xabcb975e
0,        249,        249,        1,    38016, 0x146123b9
0,        250,        250,        1,    38016, 0xbeddbfff
0,        251,        251,        1,    38016, 0xa0c97c47
0,        252,        252,        1,    38016, 0x1dca7308
0,        253,        253,        1,    38016, 0x16c5c832
0,        254,        254,        1,    38016, 0xcab326b9
0,        255,        255,        1,    38016, 0xe952c9bd
0,        256,        256,        1,    38016, 0x216ec182
0,        257,        257,        1,    38016, 0xb21a5074
0,        258,        258,        1,    38016, 0xcbe73c15
0,        259,        259,        1,    38016, 0xb5e532de
0,        260,        260,        1,    38016, 0x3a693aa5
0,        261,        261,        1,    38016, 0x157f4a20
0,        262,        262,        1,    38016, 0x9f9a5868
0,        263,        263,        1,    38016, 0x50f65ea1
0,        264,        264,        1,    38016, 0xe1735d4f
0,        265,        265,        1,    38016, 0x15284ec7
0,        266,        266,        1,    38016, 0x32433d94
0,        267,        267,        1,    38016, 0x768f2092
0,        268,        268,        1,    38016, 0x6b01f5ad
0,        269,        269,        1,    38016, 0xadcbce27
0,        270,        270,        1,    38016, 0x6faca613
0,        271,        271,        1,    38016, 0xd9327d40
0,        272,        272,        1,    38016, 0xbc1060ef
0,        273,        273,        1,    38016, 0xbe071251
0,        274,        274,        1,    38016, 0x47abbfaa
0,        275,        275,        1,    38016, 0x4851af88
0,        276,        276,        1,    38016, 0xff53c772
0,        277,        277,        1,    38016, 0xa1dcbef5
0,        278,        278,        1,    38016, 0x106df309
0,        279,        279,        1,    38016, 0x92e65f13
0,        280,        280,        1,    38016, 0x7e8ffdb9
0,        281,        281,        1,    38016, 0x0ba4d317
0,        282,        282,        1,    38016, 0xe038a2a2
0,        283,        283,        1,    38016, 0xc479675b
0,        284,        284,        1,    38016, 0xadbc4d18
0,        285,        285,        1,    38016, 0x2d41a44b
0,        286,        286,        1,    38016, 0x3240617d
0,        287,        287,        1,    38016, 0xa60f9b98
0,        288,        288,        1,    38016, 0x3aeea379
0,        289,        289,        1,    38016, 0x45a0936c
0,        290,        290,        1,    38016, 0xf0c42d2f
0,        291,        291,        1,    38016, 0x930343ee
0,        292,        292,        1,    38016, 0xe074d631
0,        293,        293,        1,    38016, 0xc6f20ab5
0,        294,        294,        1,    38016, 0x3f5a4ef7
0,        295,        295,        1,    38016, 0x94d44b16
0,        296,        296,        1,    38016, 0xa52427da
0,        297,        297,        1,    38016, 0x2f2116a1
0,        298,        298,        1,    38016, 0x566c2541
0,        299,        299,        1,    38016, 0x0b894c8b
